<svg id="visual" viewBox="0 0 960 540" width="960" height="540" xmlns="http://www.w3.org/2000/svg" xmlns:xlink="http://www.w3.org/1999/xlink" version="1.1"><rect x="0" y="0" width="960" height="540" fill="#efefef"></rect><defs><linearGradient id="grad1_0" x1="43.8%" y1="100%" x2="100%" y2="0%"><stop offset="14.444444444444446%" stop-color="#efefef" stop-opacity="1"></stop><stop offset="85.55555555555554%" stop-color="#efefef" stop-opacity="1"></stop></linearGradient></defs><defs><linearGradient id="grad2_0" x1="0%" y1="100%" x2="56.3%" y2="0%"><stop offset="14.444444444444446%" stop-color="#efefef" stop-opacity="1"></stop><stop offset="85.55555555555554%" stop-color="#efefef" stop-opacity="1"></stop></linearGradient></defs><g transform="translate(960, 540)"><path d="M-215 0C-209.7 -37.5 -204.4 -74.9 -187.1 -108C-169.7 -141.1 -140.2 -169.7 -107 -185.3C-73.8 -200.9 -36.9 -203.5 0 -206L0 0Z" fill="#3fe2a8"></path></g><g transform="translate(0, 0)"><path d="M213 0C207.5 36.9 202 73.8 185.3 107C168.6 140.2 140.8 169.8 108 187.1C75.2 204.3 37.6 209.1 0 214L0 0Z" fill="#3fe2a8"></path></g></svg>